<?xml version="1.0" encoding="UTF-8"?>
<svg version="1.1" viewBox="0 0 975 1280" width="975" height="1280" xmlns="http://www.w3.org/2000/svg">
<path transform="translate(489,217)" d="m0 0h16l35 2 31 4 26 5 24 6 25 8 27 10 26 12 23 12 20 12 19 13 16 12 16 13 11 10 8 7 22 22 7 8 11 13 15 20 12 17 15 25 14 26 14 32 10 28 8 29 6 27 4 26 3 33v49l-3 33-6 36-6 25-8 27-10 27-13 29-12 23-14 23-11 16-12 16-8 10-11 13-11 12-24 24-11 9-9 8-13 10-18 13-19 12-23 13-26 13-27 11-36 12-33 8-30 5-28 3-19 1h-30l-30-2-30-4-26-5-27-7-36-12-28-12-30-15-20-12-18-12-18-13-11-9-13-11-13-12-23-23-7-8-11-13-15-20-16-24-13-22-13-25-12-28-10-28-9-32-6-29-4-29-2-25v-49l3-33 6-36 7-29 9-29 11-28 14-30 13-23 13-21 13-18 10-13 11-13 7-8 9-10 21-21 8-7 13-11 17-13 17-12 19-12 25-14 27-13 28-11 31-10 28-7 20-4 31-4 11-1z" fill="#190E9C"/>
<path transform="translate(472,226)" d="m0 0h50l32 3 31 5 29 7 20 6v2l-16 3-6 2h-5v2l-18 6-19 9-18 11-11 11-2 4 11-7 11-8 23-12 13-5 16-3h8l7 3 4 4 1 7-6 8-12 9-17 8-14 3-12 2-7 2h-9v4l4 2 1 6-10 4-14 4-9 3h-3v2h33l18 2 23 6 31 11 25 12 19 10 24 16 1 2-9-3-5-2-4-4-6-2-14-4-9-4-2-1-1-6-9-1-7-5-13-2h-12l-4 3-18 1-7-3-14-1-6-11-4-3h-6l-4-2h-10l-13 2-2 1-10 1-3 1-2 10 1 5 6 9 5 2 18 1 6 10 1 3 4 2 7 3h36l11 4 8 4 14 4 6 11 5 4 21 7 6 5-2 4-4 3-9 2-9-1-11-7 1-5-11-1-16-10-10-8-8-7-7-3h-14l-6-3-12 1-5-3-6 1-4 4-6 8-2 2-5-1-2-1h-13v-2h-11l-5 3-3 6v5l1 3 4 2 7 6 3 1 12 1 6 1 18-4 4-3 10 1 4 1h8l10-4h7v3l-1 1 1 8 2 5 2 1 21 1 3 3 16 6 12 1 6 8 12 6 9 3 5 3 9 1 2-1-1-5-5-3 1-8 12-10 6-1 5 5 3 4 2 9 8 6 2 4-3 3v7l-3 8 1 6 4 3 7 1 6 10 7 8 3 1h11l4 6 6 3 7 3 3 3-4 2v6l11 6 1 3 1 6 4 7 2 9 1 1h6l3-3-1-6-3-3 1-3 10-1-2-4-5-2v-9l-3-3-3-7-5-4-2-7-7-1-5-5 1-8 3-6-2-6-4-6-3-8-9-5-5-5-2-5-2-12-8-10-7-10-1-4 11 2 6 4 4-1-1-5-2-5 7 6 9 11 9 13 11 19 10 19 10 23 7 21 5 26 2 22-1 22-1 10h-2l-10-22-4-6-3-1 8 20 5 17 2 13 1 19-2 31-4 25-2 1-13-6 2-1 1-10 1-6-2 3-5 13-8-2-11-7-1-3 4-16 4-29v-28l-3-16-1-6 5 5v2h3l-2-8-10-16-12-17-10-11-7-8-9-10-14-14-14-11-15-11-24-16-19-11-27-12-19-7-22-6-23-4-8-1-59-1-19-2-16-5-20-9-5-3-1 1 9 6 23 13 1 2-9-2-23 2h-32l-11 6-13 7-14 14-10 6-8 4-12 12-10 4-25 4-8 4-6 7-4 10-1 9v20l-4 12-6 10-6 7-14 9-20 12-11 9-5 7-3 10v12l3 10 6 11v12l3 8 14 14 9 16 5 5 9 10 13 24 6 9 1 3 1 51 4 14 5 8 10 7 9 6 8 13 13 20 8 10 8 6 2 1h17l21 3 12 5 16 10 11 10-1 7 10 5 13 4 9 2 7 8 13 4 9 7 4 4 11 7 9 7 2 4-3 1-1 4 2 5h2l2 4 12 5v3l-6 3-4 4-10-1-4 1v3l-8-1-29-1-4-4 2-5 5-8 1-6-8 1-2-1h-14l-6 1-10-2-8-4-4-1h-28l-15-4-17-3-18-1-11 2-5 2-17 1-2 1v2l17 5 3 2 1 3 10 6 17 8 6 4-1 3-7-2-1 7 1 1 14 2 7 3v2l9 3 10 6 6 2h16l12-2 15 6h20l21-2 13-3 11-6 6-3 18-1 10-4 13-8 5-2 15-3 11 2h7l8-3 5-5 5-4 2-1h8l22 4h34l21-3 28-3 38-7 14-5 13-5 18-4 14-7 10-8 8-8 6-12 2-8v-16l-3-17-1-36 2-16 6-21 6-17 9-17 5-13 2-7v-17l-5-17-7-14-6-10-1-9 4-34v-32l-1-18 4-23v-32l-6-36-7-24-10-24-12-24-10-17-12-17-13-15-18-18-11-9-13-10-17-11-15-9-23-12-23-9-24-8-10-4 1-5 21-9 12-7 11-10 6-12v-13l-5-11 7 1 28 13 19 10 20 12 22 15 13 10 10 8 14 12 13 12 17 17 7 8 12 14 13 17 12 17 13 21 10 18 13 26 11 27 10 30 9 36 6 36 2 21 1 17v33l-2 29-5 35-7 32-9 30-10 27-15 33-13 24-12 19-11 16-13 17-11 13-7 8-9 10-22 22-8 7-13 11-20 15-24 16-19 11-23 12-17 8-28 11-28 9-33 8-30 5-31 3h-56l-31-3-30-5-36-9-36-12-30-13-24-12-27-16-16-11-19-14-14-12-8-7-10-9-22-22-7-8-11-13-15-20-11-16-13-21-14-26-11-24-11-29-8-26-6-24-5-27-3-23-2-29v-33l2-29 5-35 6-28 10-34 11-29 9-20 8-16 9-17 13-21 14-20 11-14 9-11 10-11 7-8 20-20 8-7 14-12 20-15 27-18 21-12 23-12 28-12 35-12 27-7 20-4 26-4z" fill="#FCFDFC"/>
<path transform="translate(489,217)" d="m0 0h16l35 2 31 4 26 5 24 6 25 8 27 10 26 12 23 12 20 12 19 13 16 12 16 13 11 10 8 7 22 22 7 8 11 13 15 20 12 17 15 25 14 26 14 32 10 28 8 29 6 27 4 26 3 33v49l-3 33-6 36-6 25-8 27-10 27-13 29-12 23-14 23-11 16-12 16-8 10-11 13-11 12-24 24-11 9-9 8-13 10-18 13-19 12-23 13-26 13-27 11-36 12-33 8-30 5-28 3-19 1h-30l-30-2-30-4-26-5-27-7-36-12-28-12-30-15-20-12-18-12-18-13-11-9-13-11-13-12-23-23-7-8-11-13-15-20-16-24-13-22-13-25-12-28-10-28-9-32-6-29-4-29-2-25v-49l3-33 6-36 7-29 9-29 11-28 14-30 13-23 13-21 13-18 10-13 11-13 7-8 9-10 21-21 8-7 13-11 17-13 17-12 19-12 25-14 27-13 28-11 31-10 28-7 20-4 31-4 11-1zm-17 9-38 4-30 5-28 7-37 12-26 11-27 13-24 14-27 18-17 13-13 11-8 7-12 11-18 18-7 8-11 13-13 17-12 17-13 21-10 18-8 16-8 17-12 31-9 30-7 30-5 31-2 21-1 17v33l2 29 5 35 7 32 9 30 10 27 9 20 9 19 13 23 11 17 12 17 10 13 9 11 10 11 7 8 23 23 8 7 13 11 20 15 24 16 19 11 23 12 24 11 27 10 26 8 34 8 33 5 23 2h56l31-3 30-5 36-9 36-12 28-12 26-13 27-16 16-11 19-14 14-12 8-7 10-9 22-22 7-8 11-13 15-20 18-27 12-21 10-19 11-25 10-27 9-30 7-32 5-35 2-29v-33l-2-29-5-35-6-27-8-29-10-28-11-25-14-28-15-25-11-16-12-16-13-16-11-12-7-8-19-19-8-7-14-12-16-12-14-10-17-11-21-12-23-12-21-9-4 1 5 10v13l-6 12-7 7-14 9-18 8-6 3v4l10 4 30 10 23 10 21 11 22 14 15 11 11 9 12 11 14 14 9 11 10 14 9 15 14 27 10 23 7 23 5 26 2 14v32l-4 23 1 18v32l-4 37 2 8 9 15 7 19 1 5v17l-4 13-8 17-6 12-9 28-2 10-1 15 1 32 3 17v16l-4 13-6 9-9 9-14 9-11 4-17 4-17 7-22 5-29 5-28 3-15 2h-34l-22-4h-8l-6 4-4 5-6 3-4 1h-7l-12-2-17 4-21 12-4 1-18 1-20 10-18 3-13 1h-20l-15-6-12 2h-16l-10-4-7-5-8-2v-2l-11-4-10-1-1-5 1-3 8 2-1-4-16-8-13-7-3-2-1-3-7-3-13-4v-2l2-1 17-1 8-3 15-1 17 2 18 4 8 2h28l11 4 3 2 10 1 4-1h14l3 1 7-1-1 6-5 8-2 5 4 4 29 1 8 1v-3l10-1 4 1 7-6 3-1-1-4-11-4-2-4h-2l-2-7 1-2 3-1-2-4-10-8-4-3 12 3 3 1 18 1 17 5 30 7 12 3 12 1 17 4 26 2h26l31-4 24-3 32-6 12-4 12-5 21-5 16-8 9-8 7-10 2-6v-20l-2-11-1-24v-24l3-15 9-29 12-25 5-13 1-6v-8l-3-13-8-16-7-12-1-4v-13l3-21 1-16v-20l-1-12v-16l3-14 1-8v-24l-4-28-5-21-8-23-14-29-10-18-10-15-8-10-9-10-7-8-15-14-17-13-18-12-15-9-23-12-26-10-30-9-25-6-20-3h-27l18-6 2-1-1-6-4-2v-4h9l11-3 16-3 9-2 17-9 11-9 4-6-1-7-5-5-6-2h-8l-16 3-17 7-19 10-17 12-5 3 4-6 9-9 15-9 17-9 19-7 4-1v-2l9-1 11-3 7-1v-2l-27-8-33-7-28-4-24-2z" fill="#D7D9D9"/>
<path transform="translate(543,327)" d="m0 0h25l24 4 32 8 33 11 20 9 19 10 22 14 19 14 13 12 8 7 13 14 13 17 12 20 14 27 8 19 8 26 5 29 1 9v24l-3 18-1 4v16l1 12v20l-2 24-2 13v13l4 10 8 13 5 12 2 10v8l-3 12-12 25-7 19-7 25-1 7v24l1 24 2 11v20l-4 9-7 9-10 8-13 6-24 6-17 7-24 5-25 4-26 3-16 2h-26l-18-1v-1l31-1 12-2 9-2h15l13-3 15-2 23-5 8-3 7-5 21-3 14-6 14-12 6-7 3-7v-23l-5-16 2-5v-9l-1-5v-24l4-18 11-32 8-14 6-13 2-6v-16l-4-12-8-16-9-10-7-4-1-2 4-25 2-31-1-19-3-17-11-33 4 1 7 12 6 14v2h2l1-32-2-22-5-26-7-21-8-18-8-17-10-18-11-17-9-11-8-9 3 6-1 4-4 1-6-4-11-3 5 8 7 10 5 6 3 16 5 4 1 2 8 4 2 2 3 9 4 5 1 5-3 6-2 8 3 1 3 3 6 1 2 4v4l4 2 3 3 3 7 2 2v7l-1 2 5 1 2 2v3l-10 2 2 4 2 3-1 6-3 2h-6l-3-4-2-9-4-8v-5l-11-6-1-1v-6l3-3-4-3-9-3-5-6v-2l-4 1h-7l-5-3-9-11-2-6h-7l-5-4-1-6 3-10v-5l3-3-2-4-8-6-3-11-4-5-5-1-7 4-7 6-1 8 5 3 1 5-3 2-9-1-10-5-11-4-8-6-3-5-16-2-13-6-2-2-21-1-4-4-2-6v-5l2-3h-7l-10 4h-8l-9-2h-5l-4 3-18 4-18-2-5-3-9-7-2-3v-5l5-8 4-2h8l3 1v2l3-1h10l3 2 5-1 7-9 4-4 6-1 5 3 12-1 6 3h14l10 5 8 8 10 7 13 8 11 1 1 3-1 3 10 6 9 1 11-3 3-3-2-4-8-4-16-5-7-6-4-9-16-5-13-6-4-1h-36l-8-4-5-5-5-9-18-1-6-3-7-10 1-11 5-5 10-1 2-1 13-2h10l5 2 7 1 4 4 3 6 1 4h14l7 3 18-1 4-3h12l13 2 7 5 9 2 1 6 10 3 7 3 8 2 7 3 4 4 10 3-8-6-21-13-32-16-30-11-24-7-10-2-13-1-33-1v-2l11-3z" fill="#E50000"/>
<path transform="translate(489,217)" d="m0 0h16l35 2 31 4 26 5 24 6 25 8 27 10 26 12 23 12 20 12 19 13 16 12 16 13 11 10 8 7 22 22 7 8 11 13 15 20 12 17 15 25 14 26 14 32 10 28 8 29 6 27 4 26 3 33v49l-3 33-6 36-6 25-8 27-10 27-13 29-12 23-14 23-11 16-12 16-8 10-11 13-11 12-24 24-11 9-9 8-13 10-18 13-19 12-23 13-26 13-27 11-36 12-33 8-30 5-28 3-19 1h-30l-30-2-30-4-26-5-27-7-36-12-28-12-30-15-20-12-18-12-18-13-11-9-13-11-13-12-23-23-7-8-11-13-15-20-16-24-13-22-13-25-12-28-10-28-9-32-6-29-4-29-2-25v-49l3-33 6-36 7-29 9-29 11-28 14-30 13-23 13-21 13-18 10-13 11-13 7-8 9-10 21-21 8-7 13-11 17-13 17-12 19-12 25-14 27-13 28-11 31-10 28-7 20-4 31-4 11-1zm-17 9-38 4-30 5-28 7-37 12-26 11-27 13-24 14-27 18-17 13-13 11-8 7-12 11-18 18-7 8-11 13-13 17-12 17-13 21-10 18-8 16-8 17-12 31-9 30-7 30-5 31-2 21-1 17v33l2 29 5 35 7 32 9 30 10 27 9 20 9 19 13 23 11 17 12 17 10 13 9 11 10 11 7 8 23 23 8 7 13 11 20 15 24 16 19 11 23 12 24 11 27 10 26 8 34 8 33 5 23 2h56l31-3 30-5 36-9 36-12 28-12 26-13 27-16 16-11 19-14 14-12 8-7 10-9 22-22 7-8 11-13 15-20 18-27 12-21 10-19 11-25 10-27 9-30 7-32 5-35 2-29v-33l-2-29-5-35-6-27-8-29-10-28-11-25-14-28-15-25-11-16-12-16-13-16-11-12-7-8-19-19-8-7-14-12-16-12-14-10-17-11-21-12-23-12-28-12-35-12-27-7-24-5-28-4-24-2z" fill="#0D0D11"/>
<path transform="translate(543,327)" d="m0 0h25l24 4 32 8 33 11 20 9 19 10 22 14 19 14 13 12 8 7 13 14 13 17 12 20 14 27 8 19 8 26 5 29 1 9v24l-3 18-1 4v16l1 12v20l-2 24-2 13v13l4 10 8 13 5 12 2 10v8l-3 12-12 25-7 19-7 25-1 7v24l1 24 2 11v20l-4 9-7 9-10 8-13 6-24 6-17 7-24 5-25 4-26 3-16 2h-26l-18-1v-1l31-1 12-2 9-2h15l13-3 15-2 23-5 8-3 7-5 21-3 14-6 14-12 6-7 3-7v-23l-5-16 2-5v-9l-1-5v-24l4-18 11-32 8-14 6-13 2-6v-16l-4-12-8-16-9-10-7-4-1-2 4-25 2-31-1-19-3-17-11-33 4 1 7 12 6 14v2h2l1-32-2-22-5-26-7-21-8-18-8-17-10-18-11-17-9-11-11-12-19-19-11-9-15-11-19-12-23-12-19-9-31-11-23-6-18-2-33-1v-2l11-3z" fill="#0C0C10"/>
<path transform="translate(414,425)" d="m0 0 5 1 16 8 12 5 17 4 13 1 59 1 26 4 20 5 21 7 23 10 16 8 17 10 23 16 16 12 13 11 18 18 7 8 12 14 10 14 11 17 3 8-1 3-3-1-4-6 3 13 1 8v28l-5 35-3 10h-3l-10-13-8-11-1-3-5-2-5-4-5-19-10-15-10-10-2-1 1-9v-2l-4-2-6-4-3-4 1-11 1-10-3-9-5-12-4-17-4-8-8-10-7-13-6-5-8-3-5-5-25-9-11-3-11-4v-1l8 1 22 5 13 3-5-4-23-11-26-10-12-3-1 5 4 6 5 4-26-2-19-4 2-3-1-5-4-3h-15v4l5 2 5 3 1 9 7 19 10 18 15 22 7 8 13 9 5 2h8l5-5 2-4v-16l-7-16-7-10-10-11-18-13-1-4 6 2 14 8 9 7 10 10 8 13 5 13 1 5v8l-4 13-6 7-9 4-10-1-14-7-12-11-9-12-11-18-8-16-4-10-3-12v-8l-9-2-14-7h-19l-12-2-16-8-2-2 1-1-23-13-9-6z" fill="#0C0C10"/>
<path transform="translate(640,371)" d="m0 0h9l11 4 7 3 8 2 7 3 4 4 10 3 6 3 11 9 12 11 13 13 4 8-1 4-4 1-6-4-11-3 5 8 7 10 5 6 3 16 5 4 1 2 8 4 2 2 3 9 4 5 1 5-3 6-2 8 3 1 3 3 6 1 2 4v4l4 2 3 3 3 7 2 2v7l-1 2 5 1 2 2v3l-10 2 2 4 2 3-1 6-3 2h-6l-3-4-2-9-4-8v-5l-11-6-1-1v-6l3-3-4-3-9-3-5-6v-2l-4 1h-7l-5-3-9-11-2-6h-7l-5-4-1-6 3-10v-5l3-3-2-4-8-6-1-2v-8l4-6 4-2-8-7-1-2v-13l-10-4-6-5-7-6-3-9-4-5-8-4-12-3-5-4-2-6 2-5z" fill="#0C0C10"/>
<path transform="translate(479,359)" d="m0 0h25l7 11 6 3 18 1 6 10 1 3 4 2 7 3h36l11 4 8 4 14 4 6 11 5 4 21 7 6 5-2 4-4 3-9 2-9-1-11-7 1-5-11-1-16-10-10-8-8-7-7-3h-14l-6-3-12 1-5-3-6 1-4 4-6 8-2 2-5-1-2-1h-13v-2h-11l-5 1-1-1-14-3-8-5-5-4-11-1-1 8 2 4 10 1 5 5 2 4 4 2 2 2-1 5-1 1-16 1-7-6-11-3-9-4-2-2-1-9 2-8 4-1 3-11 2-2h6l2 2 5-6 7-2 5-5 7-1h3l2-4 10-2z" fill="#E60000"/>
<path transform="translate(686,520)" d="m0 0 5 2 15 13 12 11 16 17 9 11 10 13 8 11 1 8 1 4 1 13v16l-2 22-3 14h-3l-7-8-5-10-5-12-10-14-7-10-6-11-6-10-1-4-1-19-12-36-5-10-5-9z" fill="#FBFCFB"/>
<path transform="translate(535,341)" d="m0 0h10l5 2 7 1 4 4 9 18 13 1 5 3 15 1 5 5 3 7 8 2 5 5 4 6 13 8-1 5-9-2-20-5-18-8-4-1h-36l-8-4-5-5-5-9-18-1-6-3-7-10 1-11 5-5 10-1 2-1z" fill="#0C0C10"/>
<path transform="translate(518,456)" d="m0 0h13l6 5-1 5-1 1 18 4 3 3 2 4 14 10 10 9 8 10 8 16 2 5v16l-5 8-3 2h-8l-10-5-11-9-8-10-13-20-6-10-7-16-4-12 1-6-5-2-5-3v-4z" fill="#F8F9F8"/>
<path transform="translate(508,369)" d="m0 0 4 2 5 2 18 1 6 10 1 3 4 2 7 3h36l11 4 8 4 14 4 6 11 5 4 21 7 6 5-2 4-4 3-9 2-9-1-11-7 1-5-11-1-16-10-10-8-8-7-7-3h-14l-6-3-12 1-5-3-6 1-4 4-6 8-2 2-5-1-2-1h-13l-4-8-5-6-3-2 1-3 10-3 10-2 1-1z" fill="#F9FAF9"/>
<path transform="translate(613,254)" d="m0 0h11l10 4 11 2 8 4 5 7v11l-4 7-8 8-14 8-18 6-7 1h-28l-17-2 3-3 11-3 16-3 9-2 17-9 11-9 3-5-1-7-4-4-6-2h-8l-16 3-17 7-19 10-17 12-5 2 2-5 11-11 15-9 17-9 19-7z" fill="#0C0C10"/>
<path transform="translate(362,738)" d="m0 0h10l8 4 1 3h2l1-5 2-2 7 1 2 4v58l-3 5-4 1-5-3v-22l-8 5-3 1h-11l-8-5-5-7-2-9v-8l2-9 6-8z" fill="#F8F9F8"/>
<path transform="translate(586,738)" d="m0 0h10l8 5 2 1 2-5 7-1 3 3v62l-2 3-4 1-5-3-1-4-1-17-6 4-3 1h-11l-6-3-6-7-3-7v-15l4-10 7-6z" fill="#F9FAF9"/>
<path transform="translate(305,720)" d="m0 0h9l5 6 13 32 8 20v7l-3 3h-6l-4-4-4-10v-2l-27 1-6 14-2 1h-6l-3-3v-7l11-28 11-27z" fill="#F9FAF9"/>
<path transform="translate(346,615)" d="m0 0 7 1 3 7 1 40 3 6 7 3h7l6-3 3-8 1-41 4-5 7 1 2 2 1 4v37l-2 11-4 6-8 6-10 2-15-1-10-5-5-7-2-8v-44z" fill="#F9FAF9"/>
<path transform="translate(686,520)" d="m0 0 5 2 15 13 11 10h-3l-3-2 1 9 7 22 1 4 1 17 4 8 6 10 9 14 8 11 6 12 4 9 3 4-2 12h-3l-7-8-5-10-5-12-10-14-7-10-6-11-6-10-1-4-1-19-12-36-5-10-5-9z" fill="#D7D9D9"/>
<path transform="translate(476,738)" d="m0 0h17l8 4 4 8 1 25 1 4v7l-3 2h-5l-5-5-5 2-7 3h-12l-7-4-3-5v-9l4-6 8-4 18-4h3l-3-7-1-1h-11l-5 4-3 4-7-1-1-6 3-5 5-4z" fill="#F8FAF9"/>
<path transform="translate(560,633)" d="m0 0 10 1 6 3 5 5 3 5 1 3v7l-3 4-4 1h-27l3 8 3 3 2 1h8l9-6 1-1h6l1 1v6l-4 5-8 4-12 1-9-2-8-6-4-8-1-3v-12l3-9 5-6 8-4z" fill="#F8F9F8"/>
<path transform="translate(702,738)" d="m0 0h13l8 4 6 7 2 7v6l-2 3-3 1h-29l3 9 3 3 8 1 8-4 5-4 5 1 1 1-1 7-7 6-6 2h-14l-8-3-5-5-4-6-1-4v-13l3-9 5-5 6-4z" fill="#F8F9F8"/>
<path transform="translate(488,403)" d="m0 0h8l3 1v2l3-1h10l3 2 6 1h12l18 2 16 4 1 4-13 4-17 3-7 4-18 4-18-2-5-3-9-7-2-3v-5l5-8z" fill="#0C0B10"/>
<path transform="translate(533,392)" d="m0 0 6 1 3 2 12-1 6 3h14l10 5 8 8 10 7 10 6v2l-7-1h-6l-7-3-8 1-1 1-9 1h-7l-10 4h-8l-11-3 3-2 14-2 13-3-1-3-16-4-19-2h-11l-2-2 6-7 4-6z" fill="#E60000"/>
<path transform="translate(634,738)" d="m0 0h6l3 3 1 28 2 7 2 1h7l5-4 1-3 1-26 2-5 7-1 3 2 1 3v40l-3 5h-6l-4-6-5 4-5 2h-10l-6-3-4-5-2-10v-24l2-6z" fill="#F8F9F8"/>
<path transform="translate(416,633)" d="m0 0 5 2 2 5 6-5 10-2 9 3 5 6 2 10v24l-3 7-5 1-4-2-1-2-1-29-2-5-6-2-7 3-2 5-1 26-3 5-5 1-4-3-1-3v-40l3-4z" fill="#F8F9F8"/>
<path transform="translate(410,738)" d="m0 0 7 1 2 5 1 28 2 4 2 1h7l5-5 1-5 1-26 3-3h6l3 3v44l-3 3-7-1-2-5-10 6h-11l-7-4-3-5-1-5v-31l2-4z" fill="#F9FAF9"/>
<path transform="translate(781,618)" d="m0 0h5l5 7 3 18v22l-4 14-2 9-3 2-6-1-8-1-2-2v-7l2-4-1-8 3-5 1-1v-7l-3-6 1-10 4-5 4-1v-13z" fill="#E60000"/>
<path transform="translate(650,633)" d="m0 0 13 2 6 4 2 4-1 5-3 2-5-1-7-6h-9l-2 2 1 4 8 3 13 4 6 5 1 2v10l-4 6-8 4-12 1-9-2-6-4-3-4v-6l3-3 5 1 6 7 3 1h9l3-2-1-5-9-4-10-3-6-4-3-7 1-6 6-7 5-2z" fill="#F8F9F8"/>
<path transform="translate(537,481)" d="m0 0 9 1 9 2 6 4 15 15 5 10 7 8v6h-2l3 5 1 5-5 1-8-5-10-8-4-6-10-9-7-2-2-7-3-6-3-10z" fill="#0C0B0F"/>
<path transform="translate(677,382)" d="m0 0 5 1 4 4 10 3 6 3 11 9 12 11 13 13 4 8-1 4-4 1-6-4-11-3-4-7-9-6h-13l-4-6v-17l-3-2-6-2-4-8z" fill="#E50000"/>
<path transform="translate(521,721)" d="m0 0 6 1 3 5v12h7l3 3-1 4-2 2h-7l1 29 11 1 2 5-3 4-3 1h-13l-5-3-2-3-1-5v-29l-6-1-1-5 3-3h4v-12l3-5z" fill="#F8F9F8"/>
<path transform="translate(288,985)" d="m0 0h11l17 1 25 5 6 2h32l10 2 1 5-4 3-8 4h-8l-4-3-13-2-2-1h-10l-6 2h-9l-17-4-6-4-17-5v-4z" fill="#E50000"/>
<path transform="translate(493,633)" d="m0 0 5 2 4 8 8 23 2-3 9-24 3-5 4-1 5 3-1 9-12 29-4 8-4 2-6-1-5-8-12-30-1-9z" fill="#F8F9F8"/>
<path transform="translate(587,420)" d="m0 0 9 1 3 2h8l7 1 1 1 11 1 1 3-4 5-14 7-7 1h-24l-4-4-2-6v-5l4-4 7-1z" fill="#0C0B0F"/>
<path transform="translate(411,1021)" d="m0 0 7 1 10 3 6-1h15l13-1 2 1v5l-9 4-5 2-15 2-10 1-2-1h-7l-4 1h-11l-5-2-2-2v-3l-3-1v-5l3-2 15-1z" fill="#0C0C10"/>
<path transform="translate(601,633)" d="m0 0 5 2 2 4 5-5 6-1 8 3 2 2-1 7-6 1-7-1-3 1-3 9-1 24-5 5-5-1-3-5v-39l3-5z" fill="#F8F9F8"/>
<path transform="translate(627,442)" d="m0 0 9 1 13 2 11 4 6 3 2 2v10l5 3 1 5-3 2-9-1-10-5-11-4-8-6-3-5-1-5-3-3z" fill="#0C0B0F"/>
<path transform="translate(739,520)" d="m0 0 12 3 5 5 7 6 6 10 7 12h4v-15l-5-2-6-7-4-8v-3l6 1 2 4v4l4 2 3 3 3 7 2 2v7l-1 2 5 1 2 2v3l-10 2 2 4 2 3-1 6-3 2h-6l-3-4-2-9-4-8v-5l-11-6-1-1v-6l3-3-4-3-9-3-5-6z" fill="#E60000"/>
<path transform="translate(770,642)" d="m0 0h1l2 8 2 4v7l-3 3-1 5 1 6-2 4v7l1 1 10 2h5l1 4h-2l-6 16-8-2-11-7-1-3 4-16 4-29z" fill="#F7F8F7"/>
<path transform="translate(571,458)" d="m0 0 12 3 21 8 16 7 17 9v3l-30-7-25-6-8-4-4-5-1-6z" fill="#D7D9D9"/>
<path transform="translate(552,738)" d="m0 0 7 1 2 3v42l-3 4h-6l-3-3-1-3v-38l2-5z" fill="#F9FAF9"/>
<path transform="translate(434,386)" d="m0 0 5 1 3 17 4 3 9 4 1 5-1 1-21-1-3-2-7-2-3-3-1-9 2-8 6-1 2 1 2-5z" fill="#0C0C10"/>
<path transform="translate(740,473)" d="m0 0 4 2 2 3 8 4 2 2 3 9 4 5 1 5-3 6-2 6-4-2-11-4-7-8-1-4 1-7 8 1 2-1-1-6-5-7z" fill="#E60000"/>
<path transform="translate(369,747)" d="m0 0 8 2 4 5 1 3v11l-4 8-4 2h-8l-5-5-2-5v-10l4-8z" fill="#190E9A"/>
<path transform="translate(469,634)" d="m0 0h7l3 3v43l-5 4-6-2-1-1v-45z" fill="#FBFCFB"/>
<path transform="translate(593,747)" d="m0 0 7 2 4 4 2 7-1 10-3 5-4 3h-8l-5-4-2-5v-13l4-6 2-2z" fill="#190E9B"/>
<path transform="translate(576,506)" d="m0 0 3 4 7 9 2 2v6h-2l3 5 1 5-5 1-8-5-10-8-4-6-10-9v-2h16z" fill="#E60000"/>
<path transform="translate(591,273)" d="m0 0h6l5 3 1 2v6l-7 9-5 3-4 1h-13l-2-1v-6l3-4 3-8 2-2 9-2z" fill="#E60000"/>
<path transform="translate(780,631)" d="m0 0 5 2 2 6 2 11v9l-4 10-1 10h-4l-4-20-5-11 1-10 4-5z" fill="#0C0C10"/>
<path transform="translate(342,901)" d="m0 0 11 1 16 2 12 5 16 10 2 3-5-2-11-4-5-1-22-1-12-3-12-9z" fill="#D7D9D9"/>
<path transform="translate(479,340)" d="m0 0h15l-2 2-6 2-15 3-16 5-19 8-13 10-5-1 1-6 8-7 16-7 16-5z" fill="#0C0C10"/>
<path transform="translate(367,1021)" d="m0 0 5 1 4 2 9 1 2 2v4l-7 1-8 2-2 1-10-1-11-4-3-3 1-5h17z" fill="#0C0C10"/>
<path transform="translate(416,428)" d="m0 0 15 8 17 10 1 2-9-2-23 2h-17l-15-1v-1l12-2 10-3 14-2-1-5-4-4z" fill="#D7D9D9"/>
<path transform="translate(528,991)" d="m0 0h8l12 4 3 4-12 2-2 2-1 4h2v2l2 1-3 2h-8v-2h-2v-2l-9 1 1-5 6-10z" fill="#FAFBFA"/>
<path transform="translate(537,481)" d="m0 0 9 1 9 2 6 4 14 14-2 1-6-3-8-1-3-2-2-4-8-3-3 1 6 8-2 4h-2l-4-8-3-10z" fill="#E60000"/>
<path transform="translate(523,330)" d="m0 0h5l-3 1v2h33v1l-30 1-16 3-14 1-1 3h-5v-1h-13l-14 2 2-2 16-4 21-4z" fill="#D7D9D9"/>
<path transform="translate(308,736)" d="m0 0h2l9 24v1h-19l3-11z" fill="#190E99"/>
<path transform="translate(490,764)" d="m0 0h3l-1 9-4 5-5 2h-6l-4-3v-7l5-3z" fill="#190E98"/>
<path transform="translate(705,473)" d="m0 0h2l3 12 1 16h-6l-5-4-1-6 3-10v-5z" fill="#E60000"/>
<path transform="translate(704,747)" d="m0 0h8l5 5 2 7h-22l1-6 4-5z" fill="#190E9A"/>
<path transform="translate(560,642)" d="m0 0 7 1 4 4 2 7h-22l1-6 5-5z" fill="#190E99"/>
<path transform="translate(518,456)" d="m0 0h13l6 5-1 5-1 1 3 2h-13l1-3-5-2-5-3v-4z" fill="#D7D9D9"/>
<path transform="translate(628,372)" d="m0 0 5 1 4 4 3 7 5 3 13 3v1h-9l-9-1-9-7-6-3-3-3 1-4z" fill="#F5F6F5"/>
<path transform="translate(539 1e3)" d="m0 0h21l2 2-1 4-5 2h-18l-2-1 1-5z" fill="#0C0C10"/>
<path transform="translate(420,943)" d="m0 0 7 1 12 3 7 8 13 4 9 7v2l-5-2-12-7-20-7-8-6z" fill="#D7D9D9"/>
<path transform="translate(699,392)" d="m0 0 4 2 10 8 12 11 7 7-2 1-11-7-5-1-3-9-6-5-5-5z" fill="#EFF1F0"/>
<path transform="translate(404,378)" d="m0 0 2 2-5 15-2 16-1 4-2-1-1-3 1-16 4-13z" fill="#0C0C10"/>
<path transform="translate(553,720)" d="m0 0 6 1 2 3v5l-3 3-4 1-5-3-1-5z" fill="#F5F7F6"/>
<path transform="translate(470,616)" d="m0 0h6l3 3-1 7-3 2-7-1-1-2v-7z" fill="#F6F7F6"/>
<path transform="translate(671,409)" d="m0 0 9 6 5 4 9 4v4l-7-1-6-4-9-8z" fill="#F1F2F2"/>
<path transform="translate(690,409)" d="m0 0 5 2 4 3 3 1h10l2 8-4-2-3-2h-13l-4-6z" fill="#F3F5F4"/>
<path transform="translate(488,1015)" d="m0 0h6l2 2-1 6-4 3-5-1-1-2v-6z" fill="#0C0C10"/>
<path transform="translate(414,995)" d="m0 0h7l1 5-4 5-5 1-3-2 1-5z" fill="#E60000"/>
<path transform="translate(613,271)" d="m0 0 6 1 3 3-1 5-7 1-4-3 1-6z" fill="#0C0C10"/>
<path transform="translate(494,987)" d="m0 0 5 2 1 1v5l-3 2h-5l-3-4 2-5z" fill="#E60000"/>
<path transform="translate(692,480)" d="m0 0h7l1 1v6l-4 3-5-2-1-6z" fill="#E60000"/>
<path transform="translate(316,495)" d="m0 0 2 1-7 4-17 3h-7v-1l12-3z" fill="#D7D9D9"/>
<path transform="translate(748,496)" d="m0 0 4 1 2 1-1 5-4 3-3-1-1-4z" fill="#F6F7F7"/>
<path transform="translate(785,691)" d="m0 0 2 3-3 15-3 1-2-1 3-11z" fill="#0C0C10"/>
<path transform="translate(476,990)" d="m0 0h5l2 5-2 3h-5l-2-2 1-5z" fill="#E60000"/>
<path transform="translate(332,1019)" d="m0 0 6 1 1 4-2 3h-5l-2-2 1-5z" fill="#0C0C10"/>
<path transform="translate(413,1010)" d="m0 0h5l1 5-7 3-3-2 2-4z" fill="#FDFEFD"/>
<path transform="translate(402,995)" d="m0 0 4 2-1 6h-6l-1-1v-5z" fill="#E60000"/>
<path transform="translate(472,1020)" d="m0 0h6l1 1v5l-4 2-4-4z" fill="#0C0C10"/>
<path transform="translate(521,1008)" d="m0 0h6l1 4-3 3-5-1-1-4z" fill="#0C0C10"/>
<path transform="translate(504,1012)" d="m0 0h5l1 1v5l-1 1h-5l-2-2 1-4z" fill="#0C0C10"/>
<path transform="translate(298,1018)" d="m0 0 5 1v5l-3 1-6-3 1-3z" fill="#0C0C10"/>
<path transform="translate(271,980)" d="m0 0 6 1-1 5-4 1-3-3z" fill="#E60000"/>
<path transform="translate(678,472)" d="m0 0 5 1 1 5-5 1-2-2z" fill="#E60000"/>
<path transform="translate(315,1019)" d="m0 0 5 1-1 5-7-1v-3z" fill="#0C0C10"/>
<path transform="translate(446,994)" d="m0 0h5l1 5-4 2-3-2z" fill="#E60000"/>
<path transform="translate(410,420)" d="m0 0 6 2 10 7-2 1-7-4h-5z" fill="#D7D9D9"/>
<path transform="translate(275,1009)" d="m0 0h5l2 2-1 4-2 1-4-3z" fill="#0C0C10"/>
<path transform="translate(238,970)" d="m0 0h5l2 4-4 2-4-3z" fill="#E60000"/>
<path transform="translate(711,415)" d="m0 0 2 4 1 4-10-5v-2z" fill="#EEEFEF"/>
<path transform="translate(593,280)" d="m0 0h5l1 4-2 2-4-1-1-4z" fill="#0C0C10"/>
<path transform="translate(699,392)" d="m0 0 4 2 10 8-2 2-6-5-5-5z" fill="#E5E7E7"/>
<path transform="translate(257,999)" d="m0 0 5 3v4l-2 1-4-4z" fill="#0C0C10"/>
<path transform="translate(432,995)" d="m0 0 5 1-1 5-5-1z" fill="#E60000"/>
<path transform="translate(254,976)" d="m0 0h5l2 4-1 1h-5z" fill="#E60000"/>
<path transform="translate(776,679)" d="m0 0 3 1 1 3-1 2h-5v-5z" fill="#0C0C10"/>
</svg>
